<svg width="30" height="30" viewBox="0 0 30 30" fill="none" xmlns="http://www.w3.org/2000/svg">
<path d="M7.5 26.875C6.8125 26.875 6.22396 26.6302 5.73438 26.1406C5.24479 25.651 5 25.0625 5 24.375V4.375C5 3.6875 5.24479 3.09896 5.73438 2.60938C6.22396 2.11979 6.8125 1.875 7.5 1.875H22.5C23.1875 1.875 23.776 2.11979 24.2656 2.60938C24.7552 3.09896 25 3.6875 25 4.375V24.375C25 25.0625 24.7552 25.651 24.2656 26.1406C23.776 26.6302 23.1875 26.875 22.5 26.875H7.5ZM7.5 24.375H22.5V4.375H20V13.125L16.875 11.25L13.75 13.125V4.375H7.5V24.375Z" fill="#1A1D17"/>
</svg>
