<svg width="30" height="30" viewBox="0 0 30 30" fill="none" xmlns="http://www.w3.org/2000/svg">
<g clip-path="url(#clip0_9_186)">
<path d="M9.16667 20.4167L17.9167 17.9167L20.4167 9.16666L11.6667 11.6667L9.16667 20.4167ZM14.7917 16.6667C14.2708 16.6667 13.8281 16.4844 13.4635 16.1198C13.099 15.7552 12.9167 15.3125 12.9167 14.7917C12.9167 14.2708 13.099 13.8281 13.4635 13.4635C13.8281 13.0989 14.2708 12.9167 14.7917 12.9167C15.3125 12.9167 15.7552 13.0989 16.1198 13.4635C16.4844 13.8281 16.6667 14.2708 16.6667 14.7917C16.6667 15.3125 16.4844 15.7552 16.1198 16.1198C15.7552 16.4844 15.3125 16.6667 14.7917 16.6667ZM14.7917 27.2917C13.0625 27.2917 11.4375 26.9635 9.91667 26.3073C8.39584 25.651 7.07292 24.7604 5.94792 23.6354C4.82292 22.5104 3.9323 21.1875 3.27605 19.6667C2.6198 18.1458 2.29167 16.5208 2.29167 14.7917C2.29167 13.0625 2.6198 11.4375 3.27605 9.91666C3.9323 8.39582 4.82292 7.07291 5.94792 5.94791C7.07292 4.82291 8.39584 3.93228 9.91667 3.27603C11.4375 2.61978 13.0625 2.29166 14.7917 2.29166C16.5208 2.29166 18.1458 2.61978 19.6667 3.27603C21.1875 3.93228 22.5104 4.82291 23.6354 5.94791C24.7604 7.07291 25.651 8.39582 26.3073 9.91666C26.9635 11.4375 27.2917 13.0625 27.2917 14.7917C27.2917 16.5208 26.9635 18.1458 26.3073 19.6667C25.651 21.1875 24.7604 22.5104 23.6354 23.6354C22.5104 24.7604 21.1875 25.651 19.6667 26.3073C18.1458 26.9635 16.5208 27.2917 14.7917 27.2917ZM14.7917 24.7917C17.5625 24.7917 19.9219 23.8177 21.8698 21.8698C23.8177 19.9219 24.7917 17.5625 24.7917 14.7917C24.7917 12.0208 23.8177 9.66145 21.8698 7.71353C19.9219 5.76561 17.5625 4.79166 14.7917 4.79166C12.0208 4.79166 9.66146 5.76561 7.71355 7.71353C5.76563 9.66145 4.79167 12.0208 4.79167 14.7917C4.79167 17.5625 5.76563 19.9219 7.71355 21.8698C9.66146 23.8177 12.0208 24.7917 14.7917 24.7917Z" fill="#1A1D17"/>
</g>
<defs>
<clipPath id="clip0_9_186">
<rect width="30" height="30" fill="white"/>
</clipPath>
</defs>
</svg>
