<svg width="30" height="30" viewBox="0 0 30 30" fill="none" xmlns="http://www.w3.org/2000/svg">
<path d="M19.5 15.75L15.35 11.7C14.8333 11.2 14.3958 10.6458 14.0375 10.0375C13.6792 9.42917 13.5 8.76667 13.5 8.05C13.5 7.13333 13.8208 6.35417 14.4625 5.7125C15.1042 5.07083 15.8833 4.75 16.8 4.75C17.3333 4.75 17.8333 4.8625 18.3 5.0875C18.7667 5.3125 19.1667 5.61667 19.5 6C19.8333 5.61667 20.2333 5.3125 20.7 5.0875C21.1667 4.8625 21.6667 4.75 22.2 4.75C23.1167 4.75 23.8958 5.07083 24.5375 5.7125C25.1792 6.35417 25.5 7.13333 25.5 8.05C25.5 8.76667 25.325 9.42917 24.975 10.0375C24.625 10.6458 24.1917 11.2 23.675 11.7L19.5 15.75ZM19.5 12.95L22.225 10.275C22.5417 9.95833 22.8333 9.62083 23.1 9.2625C23.3667 8.90417 23.5 8.5 23.5 8.05C23.5 7.68333 23.375 7.375 23.125 7.125C22.875 6.875 22.5667 6.75 22.2 6.75C21.9667 6.75 21.7458 6.79583 21.5375 6.8875C21.3292 6.97917 21.15 7.11667 21 7.3L19.5 9.1L18 7.3C17.85 7.11667 17.6708 6.97917 17.4625 6.8875C17.2542 6.79583 17.0333 6.75 16.8 6.75C16.4333 6.75 16.125 6.875 15.875 7.125C15.625 7.375 15.5 7.68333 15.5 8.05C15.5 8.5 15.6333 8.90417 15.9 9.2625C16.1667 9.62083 16.4583 9.95833 16.775 10.275L19.5 12.95ZM10.5 21.25L17.45 23.15L23.4 21.3C23.3167 21.15 23.1958 21.0208 23.0375 20.9125C22.8792 20.8042 22.7 20.75 22.5 20.75H17.45C17 20.75 16.6417 20.7333 16.375 20.7C16.1083 20.6667 15.8333 20.6 15.55 20.5L13.225 19.725L13.775 17.775L15.8 18.45C16.0833 18.5333 16.4167 18.6 16.8 18.65C17.1833 18.7 17.75 18.7333 18.5 18.75C18.5 18.5667 18.4458 18.3917 18.3375 18.225C18.2292 18.0583 18.1 17.95 17.95 17.9L12.1 15.75H10.5V21.25ZM4.5 24.75V13.75H12.1C12.2167 13.75 12.3333 13.7625 12.45 13.7875C12.5667 13.8125 12.675 13.8417 12.775 13.875L18.65 16.05C19.2 16.25 19.6458 16.6 19.9875 17.1C20.3292 17.6 20.5 18.15 20.5 18.75H22.5C23.3333 18.75 24.0417 19.025 24.625 19.575C25.2083 20.125 25.5 20.85 25.5 21.75V22.75L17.5 25.25L10.5 23.3V24.75H4.5ZM6.5 22.75H8.5V15.75H6.5V22.75Z" fill="#1A1D17"/>
</svg>
