<svg width="30" height="30" viewBox="0 0 30 30" fill="none" xmlns="http://www.w3.org/2000/svg">
<path d="M15 26.875C13.2917 26.875 11.6771 26.5469 10.1562 25.8906C8.63542 25.2344 7.30729 24.3385 6.17188 23.2031C5.03646 22.0677 4.14062 20.7396 3.48438 19.2188C2.82812 17.6979 2.5 16.0833 2.5 14.375C2.5 12.6458 2.82812 11.026 3.48438 9.51562C4.14062 8.00521 5.03646 6.68229 6.17188 5.54688C7.30729 4.41146 8.63542 3.51562 10.1562 2.85938C11.6771 2.20312 13.2917 1.875 15 1.875C16.7292 1.875 18.349 2.20312 19.8594 2.85938C21.3698 3.51562 22.6927 4.41146 23.8281 5.54688C24.9635 6.68229 25.8594 8.00521 26.5156 9.51562C27.1719 11.026 27.5 12.6458 27.5 14.375C27.5 16.0833 27.1719 17.6979 26.5156 19.2188C25.8594 20.7396 24.9635 22.0677 23.8281 23.2031C22.6927 24.3385 21.3698 25.2344 19.8594 25.8906C18.349 26.5469 16.7292 26.875 15 26.875ZM15 24.3125C15.5417 23.5625 16.0104 22.7812 16.4062 21.9688C16.8021 21.1562 17.125 20.2917 17.375 19.375H12.625C12.875 20.2917 13.1979 21.1562 13.5938 21.9688C13.9896 22.7812 14.4583 23.5625 15 24.3125ZM11.75 23.8125C11.375 23.125 11.0469 22.4115 10.7656 21.6719C10.4844 20.9323 10.25 20.1667 10.0625 19.375H6.375C6.97917 20.4167 7.73438 21.3229 8.64062 22.0938C9.54688 22.8646 10.5833 23.4375 11.75 23.8125ZM18.25 23.8125C19.4167 23.4375 20.4531 22.8646 21.3594 22.0938C22.2656 21.3229 23.0208 20.4167 23.625 19.375H19.9375C19.75 20.1667 19.5156 20.9323 19.2344 21.6719C18.9531 22.4115 18.625 23.125 18.25 23.8125ZM5.3125 16.875H9.5625C9.5 16.4583 9.45312 16.0469 9.42188 15.6406C9.39062 15.2344 9.375 14.8125 9.375 14.375C9.375 13.9375 9.39062 13.5156 9.42188 13.1094C9.45312 12.7031 9.5 12.2917 9.5625 11.875H5.3125C5.20833 12.2917 5.13021 12.7031 5.07812 13.1094C5.02604 13.5156 5 13.9375 5 14.375C5 14.8125 5.02604 15.2344 5.07812 15.6406C5.13021 16.0469 5.20833 16.4583 5.3125 16.875ZM12.0625 16.875H17.9375C18 16.4583 18.0469 16.0469 18.0781 15.6406C18.1094 15.2344 18.125 14.8125 18.125 14.375C18.125 13.9375 18.1094 13.5156 18.0781 13.1094C18.0469 12.7031 18 12.2917 17.9375 11.875H12.0625C12 12.2917 11.9531 12.7031 11.9219 13.1094C11.8906 13.5156 11.875 13.9375 11.875 14.375C11.875 14.8125 11.8906 15.2344 11.9219 15.6406C11.9531 16.0469 12 16.4583 12.0625 16.875ZM20.4375 16.875H24.6875C24.7917 16.4583 24.8698 16.0469 24.9219 15.6406C24.974 15.2344 25 14.8125 25 14.375C25 13.9375 24.974 13.5156 24.9219 13.1094C24.8698 12.7031 24.7917 12.2917 24.6875 11.875H20.4375C20.5 12.2917 20.5469 12.7031 20.5781 13.1094C20.6094 13.5156 20.625 13.9375 20.625 14.375C20.625 14.8125 20.6094 15.2344 20.5781 15.6406C20.5469 16.0469 20.5 16.4583 20.4375 16.875ZM19.9375 9.375H23.625C23.0208 8.33333 22.2656 7.42708 21.3594 6.65625C20.4531 5.88542 19.4167 5.3125 18.25 4.9375C18.625 5.625 18.9531 6.33854 19.2344 7.07812C19.5156 7.81771 19.75 8.58333 19.9375 9.375ZM12.625 9.375H17.375C17.125 8.45833 16.8021 7.59375 16.4062 6.78125C16.0104 5.96875 15.5417 5.1875 15 4.4375C14.4583 5.1875 13.9896 5.96875 13.5938 6.78125C13.1979 7.59375 12.875 8.45833 12.625 9.375ZM6.375 9.375H10.0625C10.25 8.58333 10.4844 7.81771 10.7656 7.07812C11.0469 6.33854 11.375 5.625 11.75 4.9375C10.5833 5.3125 9.54688 5.88542 8.64062 6.65625C7.73438 7.42708 6.97917 8.33333 6.375 9.375Z" fill="#1A1D17"/>
</svg>
