<svg width="30" height="30" viewBox="0 0 30 30" fill="none" xmlns="http://www.w3.org/2000/svg">
<path d="M22.9375 12.625L21.1875 10.8125L23.875 8.1875L25.625 9.9375L22.9375 12.625ZM2.5 25V22.5H27.5V25H2.5ZM13.75 8.75V5H16.25V8.75H13.75ZM7.0625 12.5625L4.4375 9.875L6.1875 8.125L8.875 10.8125L7.0625 12.5625ZM9.28125 17.5H20.7188C20.2396 16.375 19.4896 15.4688 18.4688 14.7812C17.4479 14.0938 16.2917 13.75 15 13.75C13.7083 13.75 12.5521 14.0938 11.5312 14.7812C10.5104 15.4688 9.76042 16.375 9.28125 17.5ZM6.25 20C6.25 17.5625 7.09896 15.4948 8.79688 13.7969C10.4948 12.099 12.5625 11.25 15 11.25C17.4375 11.25 19.5052 12.099 21.2031 13.7969C22.901 15.4948 23.75 17.5625 23.75 20H6.25Z" fill="#1A1D17"/>
</svg>
