<svg width="18" height="18" viewBox="0 0 18 18" fill="none" xmlns="http://www.w3.org/2000/svg">
<g clip-path="url(#clip0_13_171)">
<path d="M8.25001 17.2125V15.7125C6.68751 15.5375 5.34688 14.8906 4.22813 13.7719C3.10938 12.6531 2.46251 11.3125 2.28751 9.75H0.787506V8.25H2.28751C2.46251 6.6875 3.10938 5.34687 4.22813 4.22812C5.34688 3.10937 6.68751 2.4625 8.25001 2.2875V0.787498H9.75001V2.2875C11.3125 2.4625 12.6531 3.10937 13.7719 4.22812C14.8906 5.34687 15.5375 6.6875 15.7125 8.25H17.2125V9.75H15.7125C15.5375 11.3125 14.8906 12.6531 13.7719 13.7719C12.6531 14.8906 11.3125 15.5375 9.75001 15.7125V17.2125H8.25001ZM9.00001 14.25C10.45 14.25 11.6875 13.7375 12.7125 12.7125C13.7375 11.6875 14.25 10.45 14.25 9C14.25 7.55 13.7375 6.3125 12.7125 5.2875C11.6875 4.2625 10.45 3.75 9.00001 3.75C7.55001 3.75 6.31251 4.2625 5.28751 5.2875C4.26251 6.3125 3.75001 7.55 3.75001 9C3.75001 10.45 4.26251 11.6875 5.28751 12.7125C6.31251 13.7375 7.55001 14.25 9.00001 14.25ZM9.00001 12C8.17501 12 7.46876 11.7062 6.88126 11.1187C6.29376 10.5312 6.00001 9.825 6.00001 9C6.00001 8.175 6.29376 7.46875 6.88126 6.88125C7.46876 6.29375 8.17501 6 9.00001 6C9.82501 6 10.5313 6.29375 11.1188 6.88125C11.7063 7.46875 12 8.175 12 9C12 9.825 11.7063 10.5312 11.1188 11.1187C10.5313 11.7062 9.82501 12 9.00001 12ZM9.00001 10.5C9.41251 10.5 9.76563 10.3531 10.0594 10.0594C10.3531 9.76562 10.5 9.4125 10.5 9C10.5 8.5875 10.3531 8.23437 10.0594 7.94062C9.76563 7.64687 9.41251 7.5 9.00001 7.5C8.58751 7.5 8.23438 7.64687 7.94063 7.94062C7.64688 8.23437 7.50001 8.5875 7.50001 9C7.50001 9.4125 7.64688 9.76562 7.94063 10.0594C8.23438 10.3531 8.58751 10.5 9.00001 10.5Z" fill="#1A1D17"/>
</g>
<defs>
<clipPath id="clip0_13_171">
<rect width="18" height="18" fill="white"/>
</clipPath>
</defs>
</svg>
