<svg width="30" height="30" viewBox="0 0 30 30" fill="none" xmlns="http://www.w3.org/2000/svg">
<path d="M1.25 26.8281V11.4844C0.875 11.2552 0.572917 10.9583 0.34375 10.5938C0.114583 10.2292 0 9.80729 0 9.32812C0 8.84896 0.25 8.26562 0.75 7.57812C1.25 6.89062 1.83333 6.22396 2.5 5.57812C3.16667 6.22396 3.75 6.89062 4.25 7.57812C4.75 8.26562 5 8.84896 5 9.32812C5 9.80729 4.88542 10.2292 4.65625 10.5938C4.42708 10.9583 4.125 11.2552 3.75 11.4844V16.8281H6.25V14.3281C6.25 13.8073 6.41667 13.3073 6.75 12.8281C7.08333 12.349 7.5625 12.0365 8.1875 11.8906C7.95833 11.5365 7.78646 11.151 7.67188 10.7344C7.55729 10.3177 7.5 9.89062 7.5 9.45312C7.5 8.61979 7.69792 7.84896 8.09375 7.14062C8.48958 6.43229 9.02083 5.84896 9.6875 5.39062L15 1.82812L20.3125 5.39062C20.9792 5.84896 21.5104 6.43229 21.9062 7.14062C22.3021 7.84896 22.5 8.61979 22.5 9.45312C22.5 9.89062 22.4427 10.3177 22.3281 10.7344C22.2135 11.151 22.0417 11.5365 21.8125 11.8906C22.4375 12.0365 22.9167 12.349 23.25 12.8281C23.5833 13.3073 23.75 13.8073 23.75 14.3281V16.8281H26.25V11.4844C25.875 11.2552 25.5729 10.9583 25.3438 10.5938C25.1146 10.2292 25 9.80729 25 9.32812C25 8.84896 25.25 8.26562 25.75 7.57812C26.25 6.89062 26.8333 6.22396 27.5 5.57812C28.1667 6.22396 28.75 6.89062 29.25 7.57812C29.75 8.26562 30 8.84896 30 9.32812C30 9.80729 29.8854 10.2292 29.6562 10.5938C29.4271 10.9583 29.125 11.2552 28.75 11.4844V26.8281H16.25V21.8281C16.25 21.474 16.1302 21.1771 15.8906 20.9375C15.651 20.6979 15.3542 20.5781 15 20.5781C14.6458 20.5781 14.349 20.6979 14.1094 20.9375C13.8698 21.1771 13.75 21.474 13.75 21.8281V26.8281H1.25ZM12.375 11.8281H17.625C18.2917 11.8281 18.8542 11.599 19.3125 11.1406C19.7708 10.6823 20 10.1198 20 9.45312C20 9.03646 19.9062 8.65625 19.7188 8.3125C19.5312 7.96875 19.2708 7.68229 18.9375 7.45312L15 4.82812L11.0625 7.45312C10.7292 7.68229 10.4688 7.96875 10.2812 8.3125C10.0938 8.65625 10 9.03646 10 9.45312C10 10.1198 10.2292 10.6823 10.6875 11.1406C11.1458 11.599 11.7083 11.8281 12.375 11.8281ZM3.75 24.3281H11.25V21.8281C11.25 20.7865 11.6146 19.901 12.3438 19.1719C13.0729 18.4427 13.9583 18.0781 15 18.0781C16.0417 18.0781 16.9271 18.4427 17.6562 19.1719C18.3854 19.901 18.75 20.7865 18.75 21.8281V24.3281H26.25V19.3281H21.25V14.3281H8.75V19.3281H3.75V24.3281Z" fill="#1A1D17"/>
</svg>
