<svg width="30" height="30" viewBox="0 0 30 30" fill="none" xmlns="http://www.w3.org/2000/svg">
<path d="M14.375 27.5C13.6875 27.5 13.099 27.2552 12.6094 26.7656C12.1198 26.276 11.875 25.6875 11.875 25H16.875C16.875 25.6875 16.6302 26.276 16.1406 26.7656C15.651 27.2552 15.0625 27.5 14.375 27.5ZM4.375 23.75V21.25H6.875V12.5C6.875 10.7708 7.39583 9.23438 8.4375 7.89062C9.47917 6.54688 10.8333 5.66667 12.5 5.25V4.375C12.5 3.85417 12.6823 3.41146 13.0469 3.04688C13.4115 2.68229 13.8542 2.5 14.375 2.5C14.8958 2.5 15.3385 2.68229 15.7031 3.04688C16.0677 3.41146 16.25 3.85417 16.25 4.375V5.25C16.8542 5.39583 17.4115 5.60938 17.9219 5.89062C18.4323 6.17188 18.9062 6.5 19.3438 6.875L17.5625 8.65625C17.125 8.30208 16.6354 8.02083 16.0938 7.8125C15.5521 7.60417 14.9792 7.5 14.375 7.5C13 7.5 11.8229 7.98958 10.8438 8.96875C9.86458 9.94792 9.375 11.125 9.375 12.5V21.25H24.375V23.75H4.375ZM19.875 16.9063L18.125 15.125C18.3333 14.9167 18.4896 14.6667 18.5938 14.375C18.6979 14.0833 18.75 13.75 18.75 13.375C18.75 13 18.6979 12.6615 18.5938 12.3594C18.4896 12.0573 18.3333 11.8021 18.125 11.5938L19.875 9.84375C20.3125 10.2812 20.651 10.8021 20.8906 11.4062C21.1302 12.0104 21.25 12.6667 21.25 13.375C21.25 14.0833 21.1302 14.7396 20.8906 15.3438C20.651 15.9479 20.3125 16.4688 19.875 16.9063ZM21.2188 18.25C21.8229 17.6458 22.2917 16.9167 22.625 16.0625C22.9583 15.2083 23.125 14.3125 23.125 13.375C23.125 12.4375 22.9583 11.5417 22.625 10.6875C22.2917 9.83333 21.8229 9.10417 21.2188 8.5L23 6.75C23.8542 7.60417 24.5052 8.59896 24.9531 9.73438C25.401 10.8698 25.625 12.0833 25.625 13.375C25.625 14.6667 25.401 15.8802 24.9531 17.0156C24.5052 18.151 23.8542 19.1458 23 20L21.2188 18.25Z" fill="#1A1D17"/>
</svg>
