<svg width="30" height="30" viewBox="0 0 30 30" fill="none" xmlns="http://www.w3.org/2000/svg">
<path d="M13.75 21.25H16.25V13.75H13.75V21.25ZM15 11.25C15.3542 11.25 15.651 11.1302 15.8906 10.8906C16.1302 10.651 16.25 10.3542 16.25 10C16.25 9.64583 16.1302 9.34896 15.8906 9.10938C15.651 8.86979 15.3542 8.75 15 8.75C14.6458 8.75 14.349 8.86979 14.1094 9.10938C13.8698 9.34896 13.75 9.64583 13.75 10C13.75 10.3542 13.8698 10.651 14.1094 10.8906C14.349 11.1302 14.6458 11.25 15 11.25ZM15 27.5C12.1042 26.7708 9.71354 25.1094 7.82812 22.5156C5.94271 19.9219 5 17.0417 5 13.875V6.25L15 2.5L25 6.25V13.875C25 17.0417 24.0573 19.9219 22.1719 22.5156C20.2865 25.1094 17.8958 26.7708 15 27.5ZM15 24.875C17.1667 24.1875 18.9583 22.8125 20.375 20.75C21.7917 18.6875 22.5 16.3958 22.5 13.875V7.96875L15 5.15625L7.5 7.96875V13.875C7.5 16.3958 8.20833 18.6875 9.625 20.75C11.0417 22.8125 12.8333 24.1875 15 24.875Z" fill="#1A1D17"/>
</svg>
