<svg width="36" height="36" viewBox="0 0 36 36" fill="none" xmlns="http://www.w3.org/2000/svg">
<path d="M20.3333 28.1792V26.1763C22.1741 25.6449 23.6714 24.624 24.825 23.1138C25.9786 21.6037 26.5555 19.8894 26.5555 17.9708C26.5555 16.0522 25.9818 14.3346 24.8346 12.818C23.6874 11.3013 22.187 10.2838 20.3333 9.76537V7.7625C22.7444 8.30694 24.7083 9.52708 26.225 11.4229C27.7417 13.3187 28.5 15.5014 28.5 17.9708C28.5 20.4403 27.7417 22.6229 26.225 24.5187C24.7083 26.4146 22.7444 27.6347 20.3333 28.1792ZM7.5 21.5V14.5H12.1667L18 8.66666V27.3333L12.1667 21.5H7.5ZM19.9445 22.8221V13.1388C20.9621 13.5018 21.7674 14.1306 22.3604 15.025C22.9535 15.9194 23.25 16.9111 23.25 18C23.25 19.0694 22.9503 20.0497 22.3508 20.9409C21.7511 21.8322 20.949 22.4593 19.9445 22.8221ZM16.0555 13.5083L13.0221 16.4445H9.44454V19.5555H13.0221L16.0555 22.5112V13.5083Z" fill="#1A1D17"/>
</svg>
